<?xml version="1.0" encoding="UTF-8"?><svg id="gele_pijler" xmlns="http://www.w3.org/2000/svg" viewBox="0 0 267.41 420.59"><defs><style>.cls-1{fill:#fff;}</style></defs><path class="cls-1" d="M136.3,420.59c-37.22,0-69.02-14.51-95.4-43.48-12.54-13.43-22.5-29.76-29.87-49.01-7.35-19.26-11.02-38.62-11.02-58.09,0-41.11,13.4-82.75,40.24-124.94,26.83-42.19,62.74-78,107.74-107.41C186.07,12.56,215.92,0,237.56,0c8.64,0,15.79,2.6,21.41,7.79,5.63,5.19,8.44,12.13,8.44,20.77,0,12.99-8.21,23.81-24.68,32.46-39.35,20.35-68.14,40.47-86.31,60.36-17.31,18.6-25.97,32.23-25.97,40.89s6.49,13.21,19.49,14.94l8.44,1.29,9.73,.65c28.13,4.33,50.96,17.42,68.47,39.26,17.53,21.84,26.28,48.36,26.28,79.52s-10.8,59.7-32.43,83.08c-24.68,26.39-56.03,39.59-94.11,39.59Z"/></svg>